# xmcd
#
# Track frame offsets:
#	150
#	11027
#	20390
#	34470
#	46582
#	59787
#	71207
#	81880
#	92315
#	105172
#	119642
#	131300
#	143660
#	154860
#	167935
#	181092
#	193262
#	204542
#	216205
#	229590
#	242700
#	253990
#	265910
#	277130
#	292432
#
# Disc length: 4044 seconds
#
# Revision: 0
# Processed by: cddbd v1.4PL0 Copyright (c) Steve Scherf et al.
# Submitted via: dBpowerAMP V4.0
#
DISCID=7c0fca19
DTITLE=Bob Wills - Boot Heel Drag
DYEAR=1900
DGENRE=Country
TTITLE0=Texas Bl;ues
TTITLE1=Cadillac in Model A
TTITLE2=Sittin On Top Of The World
TTITLE3=My Little Rock Candy Baby
TTITLE4=Bob wills Square Dance #1
TTITLE5=I'm tired Of Living This Lie
TTITLE6=B. Bowman Hop
TTITLE7=Bubbles In MY Beer
TTITLE8=Mean Woman With Green eyes
TTITLE9=I'm Human Same As You
TTITLE10=Nothing But Trouble
TTITLE11=Go Home With The Girls In The Morning
TTITLE12=Don't Be Ashamed Of Your Age
TTITLE13=Faded Love
TTITLE14=Tater Pie
TTITLE15=Bottle Baby Boogie
TTITLE16=Hop Skip And Jump Over Texas
TTITLE17=Nothin But The Best For My Baby
TTITLE18=Me And My Baby(Doin The Bunny Hop)
TTITLE19=A Maidens Prayer
TTITLE20=I Laugh When I Think How I Cried Over You
TTITLE21=Snatchin And Grabbin
TTITLE22=I've Got A New Road Under My Wheels
TTITLE23=St. Louis Blues
TTITLE24=Hubbin It
EXTD=
EXTT0=
EXTT1=
EXTT2=
EXTT3=
EXTT4=
EXTT5=
EXTT6=
EXTT7=
EXTT8=
EXTT9=
EXTT10=
EXTT11=
EXTT12=
EXTT13=
EXTT14=
EXTT15=
EXTT16=
EXTT17=
EXTT18=
EXTT19=
EXTT20=
EXTT21=
EXTT22=
EXTT23=
EXTT24=
PLAYORDER=
